# xmcd
#
# Track frame offsets: 
#        150
#        19350
#        39285
#        54340
#        75700
#        94827
#        113077
#        126430
#        152577
#        168560
#        189825
#        204812
#        224725
#
# Disc length: 3650 seconds
#
# Revision: 0
# Processed by: cddbd v1.5.2PL0 Copyright (c) Steve Scherf et al.
# Submitted via: ExactAudioCopy v0.99pb4
#
DISCID=a90e400d
DTITLE=Михаил Звездинский - Волки
DYEAR=1996
DGENRE=
TTITLE0=Волки
TTITLE1=Свободная звезда
TTITLE2=Сквозь решетку
TTITLE3=Сладкое-горькое
TTITLE4=Оборвутся рельсы
TTITLE5=Тюрьма
TTITLE6=Умчались грезы
TTITLE7=Прости меня, бродягу
TTITLE8=Налетчики
TTITLE9=Рэкет
TTITLE10=Не живу, а страдаю
TTITLE11=Тень судьбы
TTITLE12=Попурри
EXTD=
EXTT0=
EXTT1=
EXTT2=
EXTT3=
EXTT4=
EXTT5=
EXTT6=
EXTT7=
EXTT8=
EXTT9=
EXTT10=
EXTT11=
EXTT12=
PLAYORDER=
